<?xml version="1.0" encoding="UTF-8" standalone="no"?>
<!DOCTYPE svg PUBLIC "-//W3C//DTD SVG 1.1//EN"
 "http://www.w3.org/Graphics/SVG/1.1/DTD/svg11.dtd">
<!-- Generated by graphviz version 2.38.0 (20140413.2041)
 -->
<!-- Title: Tree Pages: 1 -->
<svg width="904pt" height="373pt"
 viewBox="0.00 0.00 904.00 373.00" xmlns="http://www.w3.org/2000/svg" xmlns:xlink="http://www.w3.org/1999/xlink">
<g id="graph0" class="graph" transform="scale(1 1) rotate(0) translate(4 369)">
<title>Tree</title>
<polygon fill="white" stroke="none" points="-4,4 -4,-369 900,-369 900,4 -4,4"/>
<!-- 0 -->
<g id="node1" class="node"><title>0</title>
<polygon fill="#399de5" fill-opacity="0.403922" stroke="black" points="501,-365 383,-365 383,-297 501,-297 501,-365"/>
<text text-anchor="middle" x="442" y="-349.8" font-family="Times New Roman,serif" font-size="14.00">X[22] &lt;= 106.1</text>
<text text-anchor="middle" x="442" y="-334.8" font-family="Times New Roman,serif" font-size="14.00">samples = 426</text>
<text text-anchor="middle" x="442" y="-319.8" font-family="Times New Roman,serif" font-size="14.00">value = [159, 267]</text>
<text text-anchor="middle" x="442" y="-304.8" font-family="Times New Roman,serif" font-size="14.00">class = 1</text>
</g>
<!-- 1 -->
<g id="node2" class="node"><title>1</title>
<polygon fill="#399de5" fill-opacity="0.956863" stroke="black" points="413.5,-261 302.5,-261 302.5,-193 413.5,-193 413.5,-261"/>
<text text-anchor="middle" x="358" y="-245.8" font-family="Times New Roman,serif" font-size="14.00">X[27] &lt;= 0.134</text>
<text text-anchor="middle" x="358" y="-230.8" font-family="Times New Roman,serif" font-size="14.00">samples = 259</text>
<text text-anchor="middle" x="358" y="-215.8" font-family="Times New Roman,serif" font-size="14.00">value = [11, 248]</text>
<text text-anchor="middle" x="358" y="-200.8" font-family="Times New Roman,serif" font-size="14.00">class = 1</text>
</g>
<!-- 0&#45;&gt;1 -->
<g id="edge1" class="edge"><title>0&#45;&gt;1</title>
<path fill="none" stroke="black" d="M414.728,-296.884C407.465,-288.065 399.531,-278.43 391.958,-269.235"/>
<polygon fill="black" stroke="black" points="394.482,-266.794 385.423,-261.299 389.078,-271.244 394.482,-266.794"/>
<text text-anchor="middle" x="383.015" y="-282.483" font-family="Times New Roman,serif" font-size="14.00">True</text>
</g>
<!-- 8 -->
<g id="node9" class="node"><title>8</title>
<polygon fill="#e58139" fill-opacity="0.870588" stroke="black" points="582.5,-261 471.5,-261 471.5,-193 582.5,-193 582.5,-261"/>
<text text-anchor="middle" x="527" y="-245.8" font-family="Times New Roman,serif" font-size="14.00">X[27] &lt;= 0.142</text>
<text text-anchor="middle" x="527" y="-230.8" font-family="Times New Roman,serif" font-size="14.00">samples = 167</text>
<text text-anchor="middle" x="527" y="-215.8" font-family="Times New Roman,serif" font-size="14.00">value = [148, 19]</text>
<text text-anchor="middle" x="527" y="-200.8" font-family="Times New Roman,serif" font-size="14.00">class = 0</text>
</g>
<!-- 0&#45;&gt;8 -->
<g id="edge8" class="edge"><title>0&#45;&gt;8</title>
<path fill="none" stroke="black" d="M469.597,-296.884C476.946,-288.065 484.975,-278.43 492.637,-269.235"/>
<polygon fill="black" stroke="black" points="495.537,-271.222 499.251,-261.299 490.16,-266.741 495.537,-271.222"/>
<text text-anchor="middle" x="501.514" y="-282.497" font-family="Times New Roman,serif" font-size="14.00">False</text>
</g>
<!-- 2 -->
<g id="node3" class="node"><title>2</title>
<polygon fill="#399de5" fill-opacity="0.996078" stroke="black" points="223,-157 113,-157 113,-89 223,-89 223,-157"/>
<text text-anchor="middle" x="168" y="-141.8" font-family="Times New Roman,serif" font-size="14.00">X[13] &lt;= 48.975</text>
<text text-anchor="middle" x="168" y="-126.8" font-family="Times New Roman,serif" font-size="14.00">samples = 240</text>
<text text-anchor="middle" x="168" y="-111.8" font-family="Times New Roman,serif" font-size="14.00">value = [1, 239]</text>
<text text-anchor="middle" x="168" y="-96.8" font-family="Times New Roman,serif" font-size="14.00">class = 1</text>
</g>
<!-- 1&#45;&gt;2 -->
<g id="edge2" class="edge"><title>1&#45;&gt;2</title>
<path fill="none" stroke="black" d="M302.278,-196.086C280.237,-184.254 254.774,-170.584 231.985,-158.35"/>
<polygon fill="black" stroke="black" points="233.532,-155.208 223.065,-153.561 230.221,-161.375 233.532,-155.208"/>
</g>
<!-- 5 -->
<g id="node6" class="node"><title>5</title>
<polygon fill="#e58139" fill-opacity="0.098039" stroke="black" points="407,-157 309,-157 309,-89 407,-89 407,-157"/>
<text text-anchor="middle" x="358" y="-141.8" font-family="Times New Roman,serif" font-size="14.00">X[21] &lt;= 26.0</text>
<text text-anchor="middle" x="358" y="-126.8" font-family="Times New Roman,serif" font-size="14.00">samples = 19</text>
<text text-anchor="middle" x="358" y="-111.8" font-family="Times New Roman,serif" font-size="14.00">value = [10, 9]</text>
<text text-anchor="middle" x="358" y="-96.8" font-family="Times New Roman,serif" font-size="14.00">class = 0</text>
</g>
<!-- 1&#45;&gt;5 -->
<g id="edge5" class="edge"><title>1&#45;&gt;5</title>
<path fill="none" stroke="black" d="M358,-192.884C358,-184.778 358,-175.982 358,-167.472"/>
<polygon fill="black" stroke="black" points="361.5,-167.299 358,-157.299 354.5,-167.299 361.5,-167.299"/>
</g>
<!-- 3 -->
<g id="node4" class="node"><title>3</title>
<polygon fill="#399de5" stroke="black" points="104,-53 0,-53 0,-0 104,-0 104,-53"/>
<text text-anchor="middle" x="52" y="-37.8" font-family="Times New Roman,serif" font-size="14.00">samples = 239</text>
<text text-anchor="middle" x="52" y="-22.8" font-family="Times New Roman,serif" font-size="14.00">value = [0, 239]</text>
<text text-anchor="middle" x="52" y="-7.8" font-family="Times New Roman,serif" font-size="14.00">class = 1</text>
</g>
<!-- 2&#45;&gt;3 -->
<g id="edge3" class="edge"><title>2&#45;&gt;3</title>
<path fill="none" stroke="black" d="M127.429,-88.9485C115.75,-79.4346 103.033,-69.074 91.4247,-59.6175"/>
<polygon fill="black" stroke="black" points="93.5557,-56.8392 83.5921,-53.2367 89.1345,-62.2663 93.5557,-56.8392"/>
</g>
<!-- 4 -->
<g id="node5" class="node"><title>4</title>
<polygon fill="#e58139" stroke="black" points="213.5,-53 122.5,-53 122.5,-0 213.5,-0 213.5,-53"/>
<text text-anchor="middle" x="168" y="-37.8" font-family="Times New Roman,serif" font-size="14.00">samples = 1</text>
<text text-anchor="middle" x="168" y="-22.8" font-family="Times New Roman,serif" font-size="14.00">value = [1, 0]</text>
<text text-anchor="middle" x="168" y="-7.8" font-family="Times New Roman,serif" font-size="14.00">class = 0</text>
</g>
<!-- 2&#45;&gt;4 -->
<g id="edge4" class="edge"><title>2&#45;&gt;4</title>
<path fill="none" stroke="black" d="M168,-88.9485C168,-80.7153 168,-71.848 168,-63.4814"/>
<polygon fill="black" stroke="black" points="171.5,-63.2367 168,-53.2367 164.5,-63.2367 171.5,-63.2367"/>
</g>
<!-- 6 -->
<g id="node7" class="node"><title>6</title>
<polygon fill="#399de5" fill-opacity="0.874510" stroke="black" points="322.5,-53 231.5,-53 231.5,-0 322.5,-0 322.5,-53"/>
<text text-anchor="middle" x="277" y="-37.8" font-family="Times New Roman,serif" font-size="14.00">samples = 9</text>
<text text-anchor="middle" x="277" y="-22.8" font-family="Times New Roman,serif" font-size="14.00">value = [1, 8]</text>
<text text-anchor="middle" x="277" y="-7.8" font-family="Times New Roman,serif" font-size="14.00">class = 1</text>
</g>
<!-- 5&#45;&gt;6 -->
<g id="edge6" class="edge"><title>5&#45;&gt;6</title>
<path fill="none" stroke="black" d="M329.67,-88.9485C321.907,-79.892 313.487,-70.0682 305.704,-60.9875"/>
<polygon fill="black" stroke="black" points="308.225,-58.5515 299.06,-53.2367 302.911,-63.1071 308.225,-58.5515"/>
</g>
<!-- 7 -->
<g id="node8" class="node"><title>7</title>
<polygon fill="#e58139" fill-opacity="0.890196" stroke="black" points="431.5,-53 340.5,-53 340.5,-0 431.5,-0 431.5,-53"/>
<text text-anchor="middle" x="386" y="-37.8" font-family="Times New Roman,serif" font-size="14.00">samples = 10</text>
<text text-anchor="middle" x="386" y="-22.8" font-family="Times New Roman,serif" font-size="14.00">value = [9, 1]</text>
<text text-anchor="middle" x="386" y="-7.8" font-family="Times New Roman,serif" font-size="14.00">class = 0</text>
</g>
<!-- 5&#45;&gt;7 -->
<g id="edge7" class="edge"><title>5&#45;&gt;7</title>
<path fill="none" stroke="black" d="M367.793,-88.9485C370.287,-80.5323 372.977,-71.4536 375.504,-62.9243"/>
<polygon fill="black" stroke="black" points="378.889,-63.819 378.374,-53.2367 372.178,-61.8304 378.889,-63.819"/>
</g>
<!-- 9 -->
<g id="node10" class="node"><title>9</title>
<polygon fill="#e58139" fill-opacity="0.149020" stroke="black" points="582,-157 472,-157 472,-89 582,-89 582,-157"/>
<text text-anchor="middle" x="527" y="-141.8" font-family="Times New Roman,serif" font-size="14.00">X[20] &lt;= 17.615</text>
<text text-anchor="middle" x="527" y="-126.8" font-family="Times New Roman,serif" font-size="14.00">samples = 37</text>
<text text-anchor="middle" x="527" y="-111.8" font-family="Times New Roman,serif" font-size="14.00">value = [20, 17]</text>
<text text-anchor="middle" x="527" y="-96.8" font-family="Times New Roman,serif" font-size="14.00">class = 0</text>
</g>
<!-- 8&#45;&gt;9 -->
<g id="edge9" class="edge"><title>8&#45;&gt;9</title>
<path fill="none" stroke="black" d="M527,-192.884C527,-184.778 527,-175.982 527,-167.472"/>
<polygon fill="black" stroke="black" points="530.5,-167.299 527,-157.299 523.5,-167.299 530.5,-167.299"/>
</g>
<!-- 12 -->
<g id="node13" class="node"><title>12</title>
<polygon fill="#e58139" fill-opacity="0.984314" stroke="black" points="780,-157 676,-157 676,-89 780,-89 780,-157"/>
<text text-anchor="middle" x="728" y="-141.8" font-family="Times New Roman,serif" font-size="14.00">X[11] &lt;= 0.431</text>
<text text-anchor="middle" x="728" y="-126.8" font-family="Times New Roman,serif" font-size="14.00">samples = 130</text>
<text text-anchor="middle" x="728" y="-111.8" font-family="Times New Roman,serif" font-size="14.00">value = [128, 2]</text>
<text text-anchor="middle" x="728" y="-96.8" font-family="Times New Roman,serif" font-size="14.00">class = 0</text>
</g>
<!-- 8&#45;&gt;12 -->
<g id="edge12" class="edge"><title>8&#45;&gt;12</title>
<path fill="none" stroke="black" d="M582.723,-197.723C608.809,-184.485 639.954,-168.68 666.704,-155.105"/>
<polygon fill="black" stroke="black" points="668.634,-158.051 675.967,-150.405 665.466,-151.809 668.634,-158.051"/>
</g>
<!-- 10 -->
<g id="node11" class="node"><title>10</title>
<polygon fill="#399de5" fill-opacity="0.666667" stroke="black" points="548,-53 450,-53 450,-0 548,-0 548,-53"/>
<text text-anchor="middle" x="499" y="-37.8" font-family="Times New Roman,serif" font-size="14.00">samples = 20</text>
<text text-anchor="middle" x="499" y="-22.8" font-family="Times New Roman,serif" font-size="14.00">value = [5, 15]</text>
<text text-anchor="middle" x="499" y="-7.8" font-family="Times New Roman,serif" font-size="14.00">class = 1</text>
</g>
<!-- 9&#45;&gt;10 -->
<g id="edge10" class="edge"><title>9&#45;&gt;10</title>
<path fill="none" stroke="black" d="M517.207,-88.9485C514.713,-80.5323 512.023,-71.4536 509.496,-62.9243"/>
<polygon fill="black" stroke="black" points="512.822,-61.8304 506.626,-53.2367 506.111,-63.819 512.822,-61.8304"/>
</g>
<!-- 11 -->
<g id="node12" class="node"><title>11</title>
<polygon fill="#e58139" fill-opacity="0.866667" stroke="black" points="664,-53 566,-53 566,-0 664,-0 664,-53"/>
<text text-anchor="middle" x="615" y="-37.8" font-family="Times New Roman,serif" font-size="14.00">samples = 17</text>
<text text-anchor="middle" x="615" y="-22.8" font-family="Times New Roman,serif" font-size="14.00">value = [15, 2]</text>
<text text-anchor="middle" x="615" y="-7.8" font-family="Times New Roman,serif" font-size="14.00">class = 0</text>
</g>
<!-- 9&#45;&gt;11 -->
<g id="edge11" class="edge"><title>9&#45;&gt;11</title>
<path fill="none" stroke="black" d="M557.778,-88.9485C566.297,-79.8005 575.545,-69.8697 584.072,-60.7126"/>
<polygon fill="black" stroke="black" points="586.78,-62.9402 591.034,-53.2367 581.657,-58.1698 586.78,-62.9402"/>
</g>
<!-- 13 -->
<g id="node14" class="node"><title>13</title>
<polygon fill="#399de5" stroke="black" points="773.5,-53 682.5,-53 682.5,-0 773.5,-0 773.5,-53"/>
<text text-anchor="middle" x="728" y="-37.8" font-family="Times New Roman,serif" font-size="14.00">samples = 1</text>
<text text-anchor="middle" x="728" y="-22.8" font-family="Times New Roman,serif" font-size="14.00">value = [0, 1]</text>
<text text-anchor="middle" x="728" y="-7.8" font-family="Times New Roman,serif" font-size="14.00">class = 1</text>
</g>
<!-- 12&#45;&gt;13 -->
<g id="edge13" class="edge"><title>12&#45;&gt;13</title>
<path fill="none" stroke="black" d="M728,-88.9485C728,-80.7153 728,-71.848 728,-63.4814"/>
<polygon fill="black" stroke="black" points="731.5,-63.2367 728,-53.2367 724.5,-63.2367 731.5,-63.2367"/>
</g>
<!-- 14 -->
<g id="node15" class="node"><title>14</title>
<polygon fill="#e58139" fill-opacity="0.992157" stroke="black" points="896,-53 792,-53 792,-0 896,-0 896,-53"/>
<text text-anchor="middle" x="844" y="-37.8" font-family="Times New Roman,serif" font-size="14.00">samples = 129</text>
<text text-anchor="middle" x="844" y="-22.8" font-family="Times New Roman,serif" font-size="14.00">value = [128, 1]</text>
<text text-anchor="middle" x="844" y="-7.8" font-family="Times New Roman,serif" font-size="14.00">class = 0</text>
</g>
<!-- 12&#45;&gt;14 -->
<g id="edge14" class="edge"><title>12&#45;&gt;14</title>
<path fill="none" stroke="black" d="M768.571,-88.9485C780.25,-79.4346 792.967,-69.074 804.575,-59.6175"/>
<polygon fill="black" stroke="black" points="806.865,-62.2663 812.408,-53.2367 802.444,-56.8392 806.865,-62.2663"/>
</g>
</g>
</svg>
