<?xml version="1.0" encoding="UTF-8" standalone="no"?>
<!DOCTYPE svg PUBLIC "-//W3C//DTD SVG 1.1//EN"
 "http://www.w3.org/Graphics/SVG/1.1/DTD/svg11.dtd">
<!-- Generated by graphviz version 2.38.0 (20140413.2041)
 -->
<!-- Title: Tree Pages: 1 -->
<svg width="324pt" height="477pt"
 viewBox="0.00 0.00 324.00 477.00" xmlns="http://www.w3.org/2000/svg" xmlns:xlink="http://www.w3.org/1999/xlink">
<g id="graph0" class="graph" transform="scale(1 1) rotate(0) translate(4 473)">
<title>Tree</title>
<polygon fill="white" stroke="none" points="-4,4 -4,-473 320,-473 320,4 -4,4"/>
<!-- 0 -->
<g id="node1" class="node"><title>0</title>
<polygon fill="#399de5" fill-opacity="0.027451" stroke="black" points="211.5,-469 107.5,-469 107.5,-401 211.5,-401 211.5,-469"/>
<text text-anchor="middle" x="159.5" y="-453.8" font-family="Times New Roman,serif" font-size="14.00">X[1] &lt;= 2.863</text>
<text text-anchor="middle" x="159.5" y="-438.8" font-family="Times New Roman,serif" font-size="14.00">samples = 75</text>
<text text-anchor="middle" x="159.5" y="-423.8" font-family="Times New Roman,serif" font-size="14.00">value = [37, 38]</text>
<text text-anchor="middle" x="159.5" y="-408.8" font-family="Times New Roman,serif" font-size="14.00">class = 1</text>
</g>
<!-- 1 -->
<g id="node2" class="node"><title>1</title>
<polygon fill="#399de5" fill-opacity="0.949020" stroke="black" points="150.5,-365 52.5,-365 52.5,-297 150.5,-297 150.5,-365"/>
<text text-anchor="middle" x="101.5" y="-349.8" font-family="Times New Roman,serif" font-size="14.00">X[0] &lt;= 0.364</text>
<text text-anchor="middle" x="101.5" y="-334.8" font-family="Times New Roman,serif" font-size="14.00">samples = 40</text>
<text text-anchor="middle" x="101.5" y="-319.8" font-family="Times New Roman,serif" font-size="14.00">value = [2, 38]</text>
<text text-anchor="middle" x="101.5" y="-304.8" font-family="Times New Roman,serif" font-size="14.00">class = 1</text>
</g>
<!-- 0&#45;&gt;1 -->
<g id="edge1" class="edge"><title>0&#45;&gt;1</title>
<path fill="none" stroke="black" d="M140.669,-400.884C135.807,-392.332 130.508,-383.013 125.423,-374.072"/>
<polygon fill="black" stroke="black" points="128.421,-372.262 120.435,-365.299 122.335,-375.722 128.421,-372.262"/>
<text text-anchor="middle" x="113.806" y="-385.704" font-family="Times New Roman,serif" font-size="14.00">True</text>
</g>
<!-- 8 -->
<g id="node9" class="node"><title>8</title>
<polygon fill="#e58139" stroke="black" points="266.5,-357.5 168.5,-357.5 168.5,-304.5 266.5,-304.5 266.5,-357.5"/>
<text text-anchor="middle" x="217.5" y="-342.3" font-family="Times New Roman,serif" font-size="14.00">samples = 35</text>
<text text-anchor="middle" x="217.5" y="-327.3" font-family="Times New Roman,serif" font-size="14.00">value = [35, 0]</text>
<text text-anchor="middle" x="217.5" y="-312.3" font-family="Times New Roman,serif" font-size="14.00">class = 0</text>
</g>
<!-- 0&#45;&gt;8 -->
<g id="edge8" class="edge"><title>0&#45;&gt;8</title>
<path fill="none" stroke="black" d="M178.331,-400.884C184.585,-389.886 191.561,-377.617 197.873,-366.517"/>
<polygon fill="black" stroke="black" points="201.088,-367.943 202.989,-357.52 195.003,-364.483 201.088,-367.943"/>
<text text-anchor="middle" x="209.618" y="-377.925" font-family="Times New Roman,serif" font-size="14.00">False</text>
</g>
<!-- 2 -->
<g id="node3" class="node"><title>2</title>
<polygon fill="#e58139" stroke="black" points="91,-253.5 0,-253.5 0,-200.5 91,-200.5 91,-253.5"/>
<text text-anchor="middle" x="45.5" y="-238.3" font-family="Times New Roman,serif" font-size="14.00">samples = 1</text>
<text text-anchor="middle" x="45.5" y="-223.3" font-family="Times New Roman,serif" font-size="14.00">value = [1, 0]</text>
<text text-anchor="middle" x="45.5" y="-208.3" font-family="Times New Roman,serif" font-size="14.00">class = 0</text>
</g>
<!-- 1&#45;&gt;2 -->
<g id="edge2" class="edge"><title>1&#45;&gt;2</title>
<path fill="none" stroke="black" d="M83.3184,-296.884C77.2804,-285.886 70.5448,-273.617 64.4503,-262.517"/>
<polygon fill="black" stroke="black" points="67.3916,-260.601 59.5109,-253.52 61.2556,-263.97 67.3916,-260.601"/>
</g>
<!-- 3 -->
<g id="node4" class="node"><title>3</title>
<polygon fill="#399de5" fill-opacity="0.972549" stroke="black" points="207.5,-261 109.5,-261 109.5,-193 207.5,-193 207.5,-261"/>
<text text-anchor="middle" x="158.5" y="-245.8" font-family="Times New Roman,serif" font-size="14.00">X[1] &lt;= 2.757</text>
<text text-anchor="middle" x="158.5" y="-230.8" font-family="Times New Roman,serif" font-size="14.00">samples = 39</text>
<text text-anchor="middle" x="158.5" y="-215.8" font-family="Times New Roman,serif" font-size="14.00">value = [1, 38]</text>
<text text-anchor="middle" x="158.5" y="-200.8" font-family="Times New Roman,serif" font-size="14.00">class = 1</text>
</g>
<!-- 1&#45;&gt;3 -->
<g id="edge3" class="edge"><title>1&#45;&gt;3</title>
<path fill="none" stroke="black" d="M120.006,-296.884C124.785,-288.332 129.993,-279.013 134.989,-270.072"/>
<polygon fill="black" stroke="black" points="138.069,-271.736 139.892,-261.299 131.958,-268.321 138.069,-271.736"/>
</g>
<!-- 4 -->
<g id="node5" class="node"><title>4</title>
<polygon fill="#399de5" stroke="black" points="149.5,-149.5 51.5,-149.5 51.5,-96.5 149.5,-96.5 149.5,-149.5"/>
<text text-anchor="middle" x="100.5" y="-134.3" font-family="Times New Roman,serif" font-size="14.00">samples = 35</text>
<text text-anchor="middle" x="100.5" y="-119.3" font-family="Times New Roman,serif" font-size="14.00">value = [0, 35]</text>
<text text-anchor="middle" x="100.5" y="-104.3" font-family="Times New Roman,serif" font-size="14.00">class = 1</text>
</g>
<!-- 3&#45;&gt;4 -->
<g id="edge4" class="edge"><title>3&#45;&gt;4</title>
<path fill="none" stroke="black" d="M139.669,-192.884C133.415,-181.886 126.439,-169.617 120.127,-158.517"/>
<polygon fill="black" stroke="black" points="122.997,-156.483 115.011,-149.52 116.912,-159.943 122.997,-156.483"/>
</g>
<!-- 5 -->
<g id="node6" class="node"><title>5</title>
<polygon fill="#399de5" fill-opacity="0.666667" stroke="black" points="265,-157 168,-157 168,-89 265,-89 265,-157"/>
<text text-anchor="middle" x="216.5" y="-141.8" font-family="Times New Roman,serif" font-size="14.00">X[1] &lt;= 2.788</text>
<text text-anchor="middle" x="216.5" y="-126.8" font-family="Times New Roman,serif" font-size="14.00">samples = 4</text>
<text text-anchor="middle" x="216.5" y="-111.8" font-family="Times New Roman,serif" font-size="14.00">value = [1, 3]</text>
<text text-anchor="middle" x="216.5" y="-96.8" font-family="Times New Roman,serif" font-size="14.00">class = 1</text>
</g>
<!-- 3&#45;&gt;5 -->
<g id="edge5" class="edge"><title>3&#45;&gt;5</title>
<path fill="none" stroke="black" d="M177.331,-192.884C182.193,-184.332 187.492,-175.013 192.577,-166.072"/>
<polygon fill="black" stroke="black" points="195.665,-167.722 197.565,-157.299 189.579,-164.262 195.665,-167.722"/>
</g>
<!-- 6 -->
<g id="node7" class="node"><title>6</title>
<polygon fill="#e58139" stroke="black" points="207,-53 116,-53 116,-0 207,-0 207,-53"/>
<text text-anchor="middle" x="161.5" y="-37.8" font-family="Times New Roman,serif" font-size="14.00">samples = 1</text>
<text text-anchor="middle" x="161.5" y="-22.8" font-family="Times New Roman,serif" font-size="14.00">value = [1, 0]</text>
<text text-anchor="middle" x="161.5" y="-7.8" font-family="Times New Roman,serif" font-size="14.00">class = 0</text>
</g>
<!-- 5&#45;&gt;6 -->
<g id="edge6" class="edge"><title>5&#45;&gt;6</title>
<path fill="none" stroke="black" d="M197.264,-88.9485C192.206,-80.2579 186.736,-70.8608 181.633,-62.0917"/>
<polygon fill="black" stroke="black" points="184.534,-60.1189 176.479,-53.2367 178.484,-63.6401 184.534,-60.1189"/>
</g>
<!-- 7 -->
<g id="node8" class="node"><title>7</title>
<polygon fill="#399de5" stroke="black" points="316,-53 225,-53 225,-0 316,-0 316,-53"/>
<text text-anchor="middle" x="270.5" y="-37.8" font-family="Times New Roman,serif" font-size="14.00">samples = 3</text>
<text text-anchor="middle" x="270.5" y="-22.8" font-family="Times New Roman,serif" font-size="14.00">value = [0, 3]</text>
<text text-anchor="middle" x="270.5" y="-7.8" font-family="Times New Roman,serif" font-size="14.00">class = 1</text>
</g>
<!-- 5&#45;&gt;7 -->
<g id="edge7" class="edge"><title>5&#45;&gt;7</title>
<path fill="none" stroke="black" d="M235.387,-88.9485C240.353,-80.2579 245.722,-70.8608 250.733,-62.0917"/>
<polygon fill="black" stroke="black" points="253.871,-63.6557 255.793,-53.2367 247.793,-60.1826 253.871,-63.6557"/>
</g>
</g>
</svg>
